<svg width="195" height="222" viewBox="0 0 195 222" fill="none" xmlns="http://www.w3.org/2000/svg">
<g id="Logo">
<path id="Vector" d="M121.352 90.5917C121.352 90.5917 90.3596 43.6276 84.1003 30.8954C77.841 18.1631 71.3081 0.619629 71.3081 0.619629C71.3081 0.619629 0.502016 46.4522 0.502016 126.806C0.502016 126.806 -0.635261 176.033 51.115 189.616C51.115 189.616 56.515 160.757 60.923 151.42C60.923 151.42 60.4954 96.2496 60.923 95.118C61.3505 93.9864 62.7742 135.012 65.6174 145.196C65.6174 145.196 79.2647 113.508 121.352 90.5917Z" fill="#F9EECC"/>
<path id="Vector_2" d="M194.483 76.0596C194.483 76.0596 197.613 213.349 119.686 221.258C119.686 221.258 88.9705 223.802 58.542 205.721C58.542 205.721 57.9733 163.629 84.4208 131.144C110.868 98.6601 157.225 79.449 194.483 76.0596ZM81.0085 209.679C99.2117 198.097 126.519 153.745 126.519 153.745L81.0085 209.679Z" fill="#F9EECC"/>
</g>
</svg>
