<svg width="25" height="24" viewBox="0 0 25 24" fill="none" xmlns="http://www.w3.org/2000/svg">
<path d="M21.3334 7.5V6C21.3334 5.46957 21.1227 4.96086 20.7476 4.58579C20.3725 4.21071 19.8638 4 19.3334 4H5.33337C4.80294 4 4.29423 4.21071 3.91916 4.58579C3.54409 4.96086 3.33337 5.46957 3.33337 6V20C3.33337 20.5304 3.54409 21.0391 3.91916 21.4142C4.29423 21.7893 4.80294 22 5.33337 22H8.83337" stroke="white" stroke-width="1.5" stroke-linecap="round" stroke-linejoin="round"/>
<path d="M16.3334 2V6" stroke="white" stroke-width="1.5" stroke-linecap="round" stroke-linejoin="round"/>
<path d="M8.33337 2V6" stroke="white" stroke-width="1.5" stroke-linecap="round" stroke-linejoin="round"/>
<path d="M3.33337 10H8.33337" stroke="white" stroke-width="1.5" stroke-linecap="round" stroke-linejoin="round"/>
<path d="M17.8334 17.5L16.3334 16.3V14" stroke="white" stroke-width="1.5" stroke-linecap="round" stroke-linejoin="round"/>
<path d="M16.3334 22C19.6471 22 22.3334 19.3137 22.3334 16C22.3334 12.6863 19.6471 10 16.3334 10C13.0197 10 10.3334 12.6863 10.3334 16C10.3334 19.3137 13.0197 22 16.3334 22Z" stroke="white" stroke-width="1.5" stroke-linecap="round" stroke-linejoin="round"/>
</svg>
