<svg width="33" height="33" viewBox="0 0 33 33" fill="none" xmlns="http://www.w3.org/2000/svg">
<path id="Line" d="M30.5 16.3806C30.5 18.2191 30.1379 20.0396 29.4343 21.7382C28.7308 23.4367 27.6995 24.9801 26.3995 26.2801C25.0995 27.5801 23.5561 28.6114 21.8576 29.3149C20.159 30.0185 18.3385 30.3806 16.5 30.3806C14.6615 30.3806 12.841 30.0185 11.1424 29.3149C9.44387 28.6114 7.90052 27.5801 6.6005 26.2801C5.30048 24.9801 4.26925 23.4367 3.56569 21.7382C2.86212 20.0396 2.5 18.2191 2.5 16.3806C2.5 14.5421 2.86212 12.7216 3.56569 11.023C4.26926 9.32448 5.30049 7.78114 6.60051 6.48112C7.90053 5.1811 9.44388 4.14986 11.1424 3.4463C12.841 2.74273 14.6615 2.38061 16.5 2.38062C18.3385 2.38062 20.159 2.74274 21.8576 3.4463C23.5561 4.14987 25.0995 5.1811 26.3995 6.48113C27.6995 7.78115 28.7308 9.3245 29.4343 11.0231C30.1379 12.7216 30.5 14.5421 30.5 16.3806L30.5 16.3806Z" stroke="#F9EECC" stroke-width="4" stroke-linecap="round" stroke-linejoin="round" stroke-dasharray="0.1 8"/>
</svg>
