<svg width="16" height="16" viewBox="0 0 16 16" fill="none" xmlns="http://www.w3.org/2000/svg">
<path d="M11.333 2.00001C11.5028 1.79936 11.7128 1.63605 11.9497 1.52046C12.1866 1.40488 12.4451 1.33956 12.7088 1.32868C12.9725 1.3178 13.2356 1.36159 13.4813 1.45727C13.727 1.55294 13.9499 1.69839 14.1359 1.88435C14.3218 2.07032 14.4668 2.29272 14.5614 2.53737C14.656 2.78202 14.6982 3.04356 14.6854 3.30533C14.6726 3.56709 14.605 3.82333 14.4869 4.05772C14.3689 4.29211 14.2029 4.4995 13.9997 4.66667L4.99967 13.6667L1.33301 14.6667L2.33301 11L11.333 2.00001Z" stroke="white" stroke-linecap="round" stroke-linejoin="round"/>
<path d="M10 3.33334L12.6667 6.00001" stroke="white" stroke-linecap="round" stroke-linejoin="round"/>
</svg>
