<svg width="36" height="24" viewBox="0 0 36 24" fill="none" xmlns="http://www.w3.org/2000/svg">
<line x1="0.5" y1="2.18557e-08" x2="0.499999" y2="24" stroke="#91939F"/>
<path d="M21.88 9.88C21.5853 10.1547 21.3488 10.4859 21.1849 10.8539C21.0209 11.2218 20.9327 11.6191 20.9256 12.0219C20.9185 12.4247 20.9926 12.8248 21.1435 13.1984C21.2944 13.5719 21.519 13.9113 21.8039 14.1962C22.0887 14.481 22.4281 14.7056 22.8016 14.8565C23.1752 15.0074 23.5753 15.0815 23.9781 15.0744C24.3809 15.0673 24.7782 14.9791 25.1462 14.8151C25.5142 14.6512 25.8454 14.4148 26.12 14.12" stroke="#111113" stroke-width="1.5" stroke-linecap="round" stroke-linejoin="round"/>
<path d="M22.73 5.08C23.1513 5.02751 23.5754 5.00079 24 5C31 5 34 12 34 12C33.5529 12.9571 32.9922 13.8569 32.33 14.68" stroke="#111113" stroke-width="1.5" stroke-linecap="round" stroke-linejoin="round"/>
<path d="M18.61 6.60999C16.6213 7.96461 15.0299 9.82524 14 12C14 12 17 19 24 19C25.9159 19.0051 27.7908 18.4451 29.39 17.39" stroke="#111113" stroke-width="1.5" stroke-linecap="round" stroke-linejoin="round"/>
<path d="M14 2L34 22" stroke="#111113" stroke-width="1.5" stroke-linecap="round" stroke-linejoin="round"/>
</svg>
