<svg width="20" height="20" viewBox="0 0 20 20" fill="none" xmlns="http://www.w3.org/2000/svg">
<g id="file-06">
<path id="Icon" d="M11.6663 1.89111V5.33323C11.6663 5.79994 11.6663 6.0333 11.7572 6.21156C11.8371 6.36836 11.9645 6.49584 12.1213 6.57574C12.2996 6.66656 12.533 6.66656 12.9997 6.66656H16.4418M13.333 10.8332H6.66634M13.333 14.1665H6.66634M8.33301 7.49984H6.66634M11.6663 1.6665H7.33301C5.93288 1.6665 5.23281 1.6665 4.69803 1.93899C4.22763 2.17867 3.84517 2.56112 3.60549 3.03153C3.33301 3.56631 3.33301 4.26637 3.33301 5.6665V14.3332C3.33301 15.7333 3.33301 16.4334 3.60549 16.9681C3.84517 17.4386 4.22763 17.821 4.69803 18.0607C5.23281 18.3332 5.93288 18.3332 7.33301 18.3332H12.6663C14.0665 18.3332 14.7665 18.3332 15.3013 18.0607C15.7717 17.821 16.1542 17.4386 16.3939 16.9681C16.6663 16.4334 16.6663 15.7333 16.6663 14.3332V6.6665L11.6663 1.6665Z" stroke="#475467" stroke-width="1.66667" stroke-linecap="round" stroke-linejoin="round"/>
</g>
</svg>
