<svg width="25" height="24" viewBox="0 0 25 24" fill="none" xmlns="http://www.w3.org/2000/svg">
<g id="Outline / Electronic, Devices / Headphones Round Sound">
<path id="Vector (Stroke)" fill-rule="evenodd" clip-rule="evenodd" d="M1.75005 12C1.75005 6.06294 6.56298 1.25 12.5 1.25C18.4371 1.25 23.25 6.06294 23.25 12V16.9903C23.2501 17.0619 23.2501 17.1355 23.2501 17.2112C23.2501 17.2497 23.25 17.2888 23.25 17.3285V17.514C23.25 17.5543 23.2501 17.5941 23.2501 17.6333C23.2503 18.5472 23.2505 19.1599 23.0987 19.697C22.8019 20.7473 22.0885 21.6281 21.1228 22.1085C20.6281 22.3546 20.0366 22.452 19.1816 22.5929C19.142 22.5994 19.1017 22.606 19.0609 22.6128L19.0393 22.6163C18.7353 22.6666 18.4741 22.7097 18.2571 22.732C18.0309 22.7552 17.7979 22.7626 17.5589 22.7134C16.7745 22.5518 16.1469 21.9787 15.8837 21.2269C15.8042 21.0001 15.7757 20.7692 15.7627 20.5365C15.75 20.3118 15.75 20.0379 15.75 19.714V15.1871C15.75 15.1529 15.75 15.119 15.75 15.0856C15.7495 14.6087 15.7491 14.2125 15.8508 13.874C16.0835 13.0997 16.6985 12.492 17.4891 12.3021C17.8343 12.2192 18.2272 12.2521 18.6754 12.2898C18.7091 12.2926 18.743 12.2954 18.7773 12.2983C18.818 12.3016 18.8582 12.3049 18.8977 12.3082C19.7377 12.3772 20.3184 12.4249 20.8113 12.6156C21.1522 12.7475 21.4673 12.9276 21.75 13.1475V12C21.75 6.89137 17.6087 2.75 12.5 2.75C7.39141 2.75 3.25005 6.89137 3.25005 12V13.1475C3.53277 12.9276 3.84792 12.7475 4.18881 12.6156C4.68169 12.4249 5.26235 12.3772 6.10236 12.3082C6.14193 12.3049 6.18207 12.3016 6.2228 12.2983C6.25707 12.2954 6.29102 12.2926 6.32467 12.2898C6.77289 12.2521 7.16578 12.2192 7.51102 12.3021C8.30159 12.492 8.91657 13.0997 9.14928 13.874C9.25101 14.2125 9.25061 14.6087 9.25012 15.0856C9.25008 15.119 9.25005 15.1529 9.25005 15.1871V19.7139C9.25005 20.0379 9.25006 20.3118 9.23743 20.5365C9.22434 20.7692 9.19585 21.0001 9.11642 21.2269C8.85318 21.9787 8.22564 22.5518 7.44119 22.7134C7.20224 22.7626 6.96919 22.7552 6.74301 22.732C6.52601 22.7097 6.26484 22.6666 5.9608 22.6163L5.93914 22.6128C5.89834 22.606 5.85811 22.5994 5.81846 22.5929C4.96344 22.452 4.37195 22.3546 3.87731 22.1085C2.91157 21.6281 2.1982 20.7473 1.90136 19.697C1.77082 19.2351 1.75268 18.7173 1.75033 18L1.75005 17.8576C1.74998 17.7848 1.75 17.7101 1.75002 17.6333C1.75003 17.5941 1.75005 17.5543 1.75005 17.514V17.3285C1.75005 17.2889 1.75003 17.2497 1.75002 17.2112C1.75 17.1357 1.74998 17.0623 1.75005 16.9909V12ZM3.25005 17.514C3.25005 18.5917 3.25704 18.9785 3.34482 19.2891C3.53097 19.9477 3.97252 20.4805 4.54544 20.7655C4.81186 20.8981 5.16021 20.9638 6.18353 21.1328C6.51525 21.1876 6.7306 21.2228 6.89623 21.2398C7.05781 21.2564 7.11652 21.2488 7.13859 21.2442C7.38274 21.1939 7.60343 21.009 7.70071 20.7312C7.71276 20.6968 7.73001 20.6263 7.73979 20.4523C7.74977 20.2748 7.75005 20.0434 7.75005 19.6934V15.1871C7.75005 14.5529 7.74194 14.4029 7.71276 14.3058C7.62623 14.0179 7.40765 13.8199 7.16065 13.7606C7.08309 13.742 6.958 13.7427 6.34623 13.7932C5.33829 13.8764 4.99389 13.9125 4.72996 14.0146C4.06286 14.2726 3.53836 14.8557 3.33717 15.6001C3.25653 15.8985 3.25005 16.2772 3.25005 17.3285V17.514ZM12.5 5.75C12.9143 5.75 13.25 6.08579 13.25 6.5L13.25 11.5C13.25 11.9142 12.9143 12.25 12.5 12.25C12.0858 12.25 11.75 11.9142 11.75 11.5L11.75 6.5C11.75 6.08579 12.0858 5.75 12.5 5.75ZM9.50005 7.25C9.91426 7.25 10.25 7.58579 10.25 8V10C10.25 10.4142 9.91426 10.75 9.50005 10.75C9.08583 10.75 8.75005 10.4142 8.75005 10V8C8.75005 7.58579 9.08583 7.25 9.50005 7.25ZM15.5 7.25C15.9143 7.25 16.25 7.58579 16.25 8V10C16.25 10.4142 15.9143 10.75 15.5 10.75C15.0858 10.75 14.75 10.4142 14.75 10V8C14.75 7.58579 15.0858 7.25 15.5 7.25ZM18.6539 13.7932C18.0421 13.7427 17.917 13.742 17.8394 13.7606C17.5924 13.8199 17.3739 14.0179 17.2873 14.3058C17.2582 14.4029 17.25 14.5529 17.25 15.1871V19.6934C17.25 20.0434 17.2503 20.2748 17.2603 20.4523C17.2701 20.6263 17.2873 20.6968 17.2994 20.7312C17.3967 21.009 17.6174 21.1939 17.8615 21.2442C17.8836 21.2488 17.9423 21.2564 18.1039 21.2398C18.2695 21.2228 18.4848 21.1876 18.8166 21.1328C19.8399 20.9638 20.1882 20.8981 20.4547 20.7655C21.0276 20.4805 21.4691 19.9477 21.6553 19.2891C21.7431 18.9785 21.75 18.5917 21.75 17.514V17.3285C21.75 16.2772 21.7436 15.8985 21.6629 15.6001C21.4617 14.8557 20.9372 14.2726 20.2701 14.0146C20.0062 13.9125 19.6618 13.8764 18.6539 13.7932Z" fill="#1A6251" stroke="#1A6251" stroke-width="0.5" stroke-linecap="round"/>
</g>
</svg>
