<svg width="21" height="20" viewBox="0 0 21 20" fill="none" xmlns="http://www.w3.org/2000/svg">
<g id="list">
<path id="Icon" d="M18.25 10.0001L8.25 10.0001M18.25 5.00008L8.25 5.00008M18.25 15.0001L8.25 15.0001M4.91667 10.0001C4.91667 10.4603 4.54357 10.8334 4.08333 10.8334C3.6231 10.8334 3.25 10.4603 3.25 10.0001C3.25 9.53984 3.6231 9.16675 4.08333 9.16675C4.54357 9.16675 4.91667 9.53984 4.91667 10.0001ZM4.91667 5.00008C4.91667 5.46032 4.54357 5.83341 4.08333 5.83341C3.6231 5.83341 3.25 5.46032 3.25 5.00008C3.25 4.53984 3.6231 4.16675 4.08333 4.16675C4.54357 4.16675 4.91667 4.53984 4.91667 5.00008ZM4.91667 15.0001C4.91667 15.4603 4.54357 15.8334 4.08333 15.8334C3.6231 15.8334 3.25 15.4603 3.25 15.0001C3.25 14.5398 3.6231 14.1667 4.08333 14.1667C4.54357 14.1667 4.91667 14.5398 4.91667 15.0001Z" stroke="#1A6251" stroke-width="1.66667" stroke-linecap="round" stroke-linejoin="round"/>
</g>
</svg>
