<svg width="29" height="28" viewBox="0 0 29 28" fill="none" xmlns="http://www.w3.org/2000/svg">
<g id="lock-01">
<path id="Icon" d="M20.3337 11.6667V9.33333C20.3337 6.11167 17.722 3.5 14.5003 3.5C11.2787 3.5 8.66699 6.11167 8.66699 9.33333V11.6667M14.5003 16.9167V19.25M10.767 24.5H18.2337C20.1938 24.5 21.1739 24.5 21.9226 24.1185C22.5812 23.783 23.1166 23.2475 23.4522 22.589C23.8337 21.8403 23.8337 20.8602 23.8337 18.9V17.2667C23.8337 15.3065 23.8337 14.3264 23.4522 13.5777C23.1166 12.9191 22.5812 12.3837 21.9226 12.0481C21.1739 11.6667 20.1938 11.6667 18.2337 11.6667H10.767C8.80681 11.6667 7.82672 11.6667 7.07803 12.0481C6.41946 12.3837 5.88403 12.9191 5.54847 13.5777C5.16699 14.3264 5.16699 15.3065 5.16699 17.2667V18.9C5.16699 20.8602 5.16699 21.8403 5.54847 22.589C5.88403 23.2475 6.41946 23.783 7.07803 24.1185C7.82672 24.5 8.80681 24.5 10.767 24.5Z" stroke="#344054" stroke-width="2" stroke-linecap="round" stroke-linejoin="round"/>
</g>
</svg>
