<svg width="29" height="28" viewBox="0 0 29 28" fill="none" xmlns="http://www.w3.org/2000/svg">
<g id="mail-01">
<path id="Icon" d="M2.83301 8.16663L12.3587 14.8346C13.1301 15.3746 13.5158 15.6446 13.9353 15.7492C14.3059 15.8415 14.6935 15.8415 15.064 15.7492C15.4836 15.6446 15.8692 15.3746 16.6406 14.8346L26.1663 8.16663M8.43301 23.3333H20.5663C22.5265 23.3333 23.5066 23.3333 24.2553 22.9518C24.9139 22.6163 25.4493 22.0808 25.7849 21.4223C26.1663 20.6736 26.1663 19.6935 26.1663 17.7333V10.2666C26.1663 8.30644 26.1663 7.32635 25.7849 6.57766C25.4493 5.91909 24.9139 5.38366 24.2553 5.0481C23.5066 4.66663 22.5265 4.66663 20.5663 4.66663H8.43301C6.47282 4.66663 5.49273 4.66663 4.74404 5.0481C4.08547 5.38366 3.55004 5.91909 3.21448 6.57766C2.83301 7.32635 2.83301 8.30644 2.83301 10.2666V17.7333C2.83301 19.6935 2.83301 20.6736 3.21448 21.4223C3.55004 22.0808 4.08547 22.6163 4.74404 22.9518C5.49273 23.3333 6.47282 23.3333 8.43301 23.3333Z" stroke="#344054" stroke-width="2" stroke-linecap="round" stroke-linejoin="round"/>
</g>
</svg>
