<svg width="32" height="32" viewBox="0 0 32 32" fill="none" xmlns="http://www.w3.org/2000/svg">
<g id="play">
<path id="Icon" d="M6.66699 6.65285C6.66699 5.35796 6.66699 4.71052 6.93698 4.35362C7.17218 4.0427 7.53169 3.8503 7.92086 3.82707C8.36757 3.8004 8.90628 4.15953 9.98369 4.8778L24.0044 14.225C24.8947 14.8185 25.3398 15.1152 25.4949 15.4892C25.6305 15.8163 25.6305 16.1838 25.4949 16.5108C25.3398 16.8848 24.8947 17.1815 24.0044 17.775L9.98368 27.1222C8.90628 27.8405 8.36757 28.1996 7.92086 28.1729C7.53169 28.1497 7.17218 27.9573 6.93698 27.6464C6.66699 27.2895 6.66699 26.6421 6.66699 25.3472V6.65285Z" stroke="#F9EECC" stroke-width="2" stroke-linecap="round" stroke-linejoin="round"/>
</g>
</svg>
