<svg width="25" height="24" viewBox="0 0 25 24" fill="none" xmlns="http://www.w3.org/2000/svg">
<path d="M21.3335 7.5V6C21.3335 5.46957 21.1228 4.96086 20.7477 4.58579C20.3726 4.21071 19.8639 4 19.3335 4H5.3335C4.80306 4 4.29436 4.21071 3.91928 4.58579C3.54421 4.96086 3.3335 5.46957 3.3335 6V20C3.3335 20.5304 3.54421 21.0391 3.91928 21.4142C4.29436 21.7893 4.80306 22 5.3335 22H8.8335" stroke="#91939F" stroke-width="1.5" stroke-linecap="round" stroke-linejoin="round"/>
<path d="M16.3335 2V6" stroke="#91939F" stroke-width="1.5" stroke-linecap="round" stroke-linejoin="round"/>
<path d="M8.3335 2V6" stroke="#91939F" stroke-width="1.5" stroke-linecap="round" stroke-linejoin="round"/>
<path d="M3.3335 10H8.3335" stroke="#91939F" stroke-width="1.5" stroke-linecap="round" stroke-linejoin="round"/>
<path d="M17.8335 17.5L16.3335 16.3V14" stroke="#91939F" stroke-width="1.5" stroke-linecap="round" stroke-linejoin="round"/>
<path d="M16.3335 22C19.6472 22 22.3335 19.3137 22.3335 16C22.3335 12.6863 19.6472 10 16.3335 10C13.0198 10 10.3335 12.6863 10.3335 16C10.3335 19.3137 13.0198 22 16.3335 22Z" stroke="#91939F" stroke-width="1.5" stroke-linecap="round" stroke-linejoin="round"/>
</svg>
