<svg width="12" height="12" viewBox="0 0 12 12" fill="none" xmlns="http://www.w3.org/2000/svg">
<path d="M7.49302 4.23717L6.22689 1.49221C6.13754 1.29849 5.86222 1.29849 5.77286 1.49221L4.50674 4.23717C4.47032 4.31612 4.3955 4.37048 4.30916 4.38072L1.30729 4.73664C1.09545 4.76175 1.01037 5.0236 1.16699 5.16844L3.38635 7.22084C3.45018 7.27987 3.47876 7.36783 3.46181 7.45311L2.87269 10.418C2.83111 10.6273 3.05385 10.7891 3.24 10.6849L5.87777 9.2084C5.95363 9.16593 6.04612 9.16593 6.12199 9.2084L8.75975 10.6849C8.9459 10.7891 9.16864 10.6273 9.12706 10.418L8.53794 7.45311C8.52099 7.36783 8.54957 7.27987 8.61341 7.22084L10.8328 5.16844C10.9894 5.0236 10.9043 4.76175 10.6925 4.73664L7.6906 4.38072C7.60425 4.37048 7.52943 4.31612 7.49302 4.23717Z" fill="#FED049" stroke="#FED049" stroke-linecap="round" stroke-linejoin="round"/>
</svg>
